<?xml version="1.0" encoding="UTF-8" ?>
<svg version="1.1" width="32" height="32" xmlns="http://www.w3.org/2000/svg" shape-rendering="crispEdges">
<rect x="0" y="0" width="14" height="1" fill="#3F3F74" />
<rect x="14" y="0" width="1" height="1" fill="#5FCDE4" />
<rect x="15" y="0" width="1" height="2" fill="#3F3F74" />
<rect x="16" y="0" width="1" height="1" fill="#000000" />
<rect x="17" y="0" width="3" height="1" fill="#5FCDE4" />
<rect x="20" y="0" width="1" height="1" fill="#000000" />
<rect x="21" y="0" width="1" height="2" fill="#3F3F74" />
<rect x="22" y="0" width="1" height="1" fill="#000000" />
<rect x="23" y="0" width="1" height="2" fill="#3F3F74" />
<rect x="24" y="0" width="1" height="1" fill="#000000" />
<rect x="25" y="0" width="1" height="1" fill="#3F3F74" />
<rect x="26" y="0" width="1" height="1" fill="#000000" />
<rect x="27" y="0" width="1" height="1" fill="#3F3F74" />
<rect x="28" y="0" width="1" height="1" fill="#000000" />
<rect x="29" y="0" width="1" height="1" fill="#3F3F74" />
<rect x="30" y="0" width="1" height="1" fill="#000000" />
<rect x="31" y="0" width="1" height="1" fill="#3F3F74" />
<rect x="0" y="1" width="10" height="1" fill="#3F3F74" />
<rect x="10" y="1" width="2" height="1" fill="#5FCDE4" />
<rect x="12" y="1" width="1" height="1" fill="#3F3F74" />
<rect x="13" y="1" width="1" height="1" fill="#5FCDE4" />
<rect x="14" y="1" width="1" height="2" fill="#3F3F74" />
<rect x="16" y="1" width="2" height="1" fill="#5FCDE4" />
<rect x="18" y="1" width="3" height="1" fill="#3F3F74" />
<rect x="22" y="1" width="1" height="1" fill="#3F3F74" />
<rect x="24" y="1" width="1" height="1" fill="#3F3F74" />
<rect x="25" y="1" width="1" height="1" fill="#000000" />
<rect x="26" y="1" width="1" height="1" fill="#3F3F74" />
<rect x="27" y="1" width="1" height="1" fill="#000000" />
<rect x="28" y="1" width="1" height="1" fill="#3F3F74" />
<rect x="29" y="1" width="1" height="1" fill="#000000" />
<rect x="30" y="1" width="1" height="1" fill="#3F3F74" />
<rect x="31" y="1" width="1" height="12" fill="#000000" />
<rect x="0" y="2" width="7" height="1" fill="#3F3F74" />
<rect x="7" y="2" width="1" height="1" fill="#5FCDE4" />
<rect x="8" y="2" width="1" height="1" fill="#3F3F74" />
<rect x="9" y="2" width="2" height="1" fill="#5FCDE4" />
<rect x="11" y="2" width="1" height="1" fill="#3F3F74" />
<rect x="12" y="2" width="1" height="2" fill="#5FCDE4" />
<rect x="13" y="2" width="1" height="3" fill="#3F3F74" />
<rect x="15" y="2" width="2" height="1" fill="#5FCDE4" />
<rect x="17" y="2" width="1" height="2" fill="#3F3F74" />
<rect x="18" y="2" width="1" height="1" fill="#000000" />
<rect x="19" y="2" width="5" height="2" fill="#5FCDE4" />
<rect x="24" y="2" width="1" height="1" fill="#000000" />
<rect x="25" y="2" width="1" height="2" fill="#3F3F74" />
<rect x="26" y="2" width="1" height="1" fill="#000000" />
<rect x="27" y="2" width="1" height="1" fill="#3F3F74" />
<rect x="28" y="2" width="1" height="1" fill="#000000" />
<rect x="29" y="2" width="1" height="1" fill="#3F3F74" />
<rect x="30" y="2" width="1" height="1" fill="#000000" />
<rect x="0" y="3" width="6" height="1" fill="#3F3F74" />
<rect x="6" y="3" width="1" height="1" fill="#5FCDE4" />
<rect x="7" y="3" width="1" height="1" fill="#3F3F74" />
<rect x="8" y="3" width="2" height="1" fill="#5FCDE4" />
<rect x="10" y="3" width="1" height="1" fill="#3F3F74" />
<rect x="11" y="3" width="1" height="2" fill="#5FCDE4" />
<rect x="14" y="3" width="2" height="2" fill="#5FCDE4" />
<rect x="16" y="3" width="1" height="1" fill="#3F3F74" />
<rect x="18" y="3" width="1" height="2" fill="#5FCDE4" />
<rect x="24" y="3" width="1" height="3" fill="#5FCDE4" />
<rect x="26" y="3" width="1" height="1" fill="#3F3F74" />
<rect x="27" y="3" width="1" height="1" fill="#000000" />
<rect x="28" y="3" width="1" height="1" fill="#3F3F74" />
<rect x="29" y="3" width="1" height="3" fill="#000000" />
<rect x="30" y="3" width="1" height="1" fill="#3F3F74" />
<rect x="0" y="4" width="5" height="1" fill="#3F3F74" />
<rect x="5" y="4" width="1" height="1" fill="#5FCDE4" />
<rect x="6" y="4" width="1" height="1" fill="#3F3F74" />
<rect x="7" y="4" width="2" height="1" fill="#5FCDE4" />
<rect x="9" y="4" width="1" height="13" fill="#3F3F74" />
<rect x="10" y="4" width="1" height="4" fill="#5FCDE4" />
<rect x="12" y="4" width="1" height="4" fill="#3F3F74" />
<rect x="16" y="4" width="1" height="1" fill="#000000" />
<rect x="17" y="4" width="1" height="1" fill="#5FCDE4" />
<rect x="19" y="4" width="1" height="5" fill="#3F3F74" />
<rect x="20" y="4" width="1" height="1" fill="#000000" />
<rect x="21" y="4" width="1" height="1" fill="#3F3F74" />
<rect x="22" y="4" width="2" height="1" fill="#5FCDE4" />
<rect x="25" y="4" width="2" height="2" fill="#5FCDE4" />
<rect x="27" y="4" width="1" height="1" fill="#3F3F74" />
<rect x="28" y="4" width="1" height="1" fill="#000000" />
<rect x="30" y="4" width="1" height="1" fill="#000000" />
<rect x="0" y="5" width="4" height="2" fill="#3F3F74" />
<rect x="4" y="5" width="1" height="1" fill="#5FCDE4" />
<rect x="5" y="5" width="1" height="1" fill="#3F3F74" />
<rect x="6" y="5" width="2" height="1" fill="#5FCDE4" />
<rect x="8" y="5" width="1" height="7" fill="#3F3F74" />
<rect x="11" y="5" width="1" height="2" fill="#3F3F74" />
<rect x="13" y="5" width="2" height="2" fill="#5FCDE4" />
<rect x="15" y="5" width="4" height="1" fill="#3F3F74" />
<rect x="20" y="5" width="1" height="1" fill="#3F3F74" />
<rect x="21" y="5" width="1" height="1" fill="#000000" />
<rect x="22" y="5" width="1" height="1" fill="#3F3F74" />
<rect x="23" y="5" width="1" height="1" fill="#000000" />
<rect x="27" y="5" width="1" height="2" fill="#5FCDE4" />
<rect x="28" y="5" width="1" height="1" fill="#3F3F74" />
<rect x="30" y="5" width="1" height="1" fill="#3F3F74" />
<rect x="4" y="6" width="1" height="1" fill="#3F3F74" />
<rect x="5" y="6" width="2" height="1" fill="#5FCDE4" />
<rect x="7" y="6" width="1" height="5" fill="#3F3F74" />
<rect x="15" y="6" width="1" height="2" fill="#5FCDE4" />
<rect x="16" y="6" width="2" height="2" fill="#3F3F74" />
<rect x="18" y="6" width="1" height="1" fill="#000000" />
<rect x="20" y="6" width="1" height="1" fill="#000000" />
<rect x="21" y="6" width="1" height="3" fill="#3F3F74" />
<rect x="22" y="6" width="1" height="1" fill="#000000" />
<rect x="23" y="6" width="1" height="1" fill="#3F3F74" />
<rect x="24" y="6" width="1" height="1" fill="#000000" />
<rect x="25" y="6" width="1" height="1" fill="#3F3F74" />
<rect x="26" y="6" width="1" height="1" fill="#5FCDE4" />
<rect x="28" y="6" width="1" height="1" fill="#000000" />
<rect x="29" y="6" width="1" height="1" fill="#3F3F74" />
<rect x="30" y="6" width="1" height="1" fill="#000000" />
<rect x="0" y="7" width="3" height="1" fill="#3F3F74" />
<rect x="3" y="7" width="3" height="1" fill="#5FCDE4" />
<rect x="6" y="7" width="1" height="6" fill="#3F3F74" />
<rect x="11" y="7" width="1" height="2" fill="#5FCDE4" />
<rect x="13" y="7" width="1" height="3" fill="#3F3F74" />
<rect x="14" y="7" width="1" height="2" fill="#5FCDE4" />
<rect x="18" y="7" width="1" height="1" fill="#3F3F74" />
<rect x="20" y="7" width="1" height="1" fill="#3F3F74" />
<rect x="22" y="7" width="1" height="1" fill="#3F3F74" />
<rect x="23" y="7" width="1" height="1" fill="#000000" />
<rect x="24" y="7" width="1" height="1" fill="#3F3F74" />
<rect x="25" y="7" width="1" height="3" fill="#000000" />
<rect x="26" y="7" width="1" height="1" fill="#3F3F74" />
<rect x="27" y="7" width="1" height="6" fill="#000000" />
<rect x="28" y="7" width="1" height="1" fill="#5FCDE4" />
<rect x="29" y="7" width="1" height="1" fill="#000000" />
<rect x="30" y="7" width="1" height="1" fill="#3F3F74" />
<rect x="0" y="8" width="2" height="2" fill="#3F3F74" />
<rect x="2" y="8" width="2" height="1" fill="#5FCDE4" />
<rect x="4" y="8" width="2" height="4" fill="#3F3F74" />
<rect x="10" y="8" width="1" height="2" fill="#3F3F74" />
<rect x="12" y="8" width="1" height="5" fill="#5FCDE4" />
<rect x="15" y="8" width="1" height="5" fill="#3F3F74" />
<rect x="16" y="8" width="1" height="1" fill="#000000" />
<rect x="17" y="8" width="1" height="1" fill="#3F3F74" />
<rect x="18" y="8" width="1" height="1" fill="#000000" />
<rect x="20" y="8" width="1" height="1" fill="#000000" />
<rect x="22" y="8" width="1" height="1" fill="#000000" />
<rect x="23" y="8" width="1" height="1" fill="#3F3F74" />
<rect x="24" y="8" width="1" height="1" fill="#000000" />
<rect x="26" y="8" width="1" height="1" fill="#000000" />
<rect x="28" y="8" width="1" height="1" fill="#000000" />
<rect x="29" y="8" width="1" height="7" fill="#5FCDE4" />
<rect x="30" y="8" width="1" height="1" fill="#000000" />
<rect x="2" y="9" width="1" height="4" fill="#5FCDE4" />
<rect x="3" y="9" width="1" height="2" fill="#3F3F74" />
<rect x="11" y="9" width="1" height="2" fill="#3F3F74" />
<rect x="14" y="9" width="1" height="1" fill="#3F3F74" />
<rect x="16" y="9" width="1" height="1" fill="#3F3F74" />
<rect x="17" y="9" width="1" height="1" fill="#000000" />
<rect x="18" y="9" width="1" height="1" fill="#3F3F74" />
<rect x="19" y="9" width="1" height="1" fill="#000000" />
<rect x="20" y="9" width="1" height="1" fill="#3F3F74" />
<rect x="21" y="9" width="1" height="1" fill="#000000" />
<rect x="22" y="9" width="1" height="1" fill="#3F3F74" />
<rect x="23" y="9" width="1" height="7" fill="#000000" />
<rect x="24" y="9" width="1" height="1" fill="#3F3F74" />
<rect x="26" y="9" width="1" height="1" fill="#3F3F74" />
<rect x="28" y="9" width="1" height="1" fill="#3F3F74" />
<rect x="30" y="9" width="1" height="1" fill="#3F3F74" />
<rect x="0" y="10" width="1" height="3" fill="#3F3F74" />
<rect x="1" y="10" width="1" height="2" fill="#5FCDE4" />
<rect x="10" y="10" width="1" height="1" fill="#000000" />
<rect x="13" y="10" width="1" height="2" fill="#5FCDE4" />
<rect x="14" y="10" width="1" height="1" fill="#000000" />
<rect x="16" y="10" width="1" height="1" fill="#000000" />
<rect x="17" y="10" width="1" height="3" fill="#3F3F74" />
<rect x="18" y="10" width="1" height="1" fill="#000000" />
<rect x="19" y="10" width="1" height="1" fill="#3F3F74" />
<rect x="20" y="10" width="1" height="1" fill="#000000" />
<rect x="21" y="10" width="1" height="1" fill="#3F3F74" />
<rect x="22" y="10" width="1" height="1" fill="#000000" />
<rect x="24" y="10" width="1" height="1" fill="#000000" />
<rect x="25" y="10" width="1" height="1" fill="#3F3F74" />
<rect x="26" y="10" width="1" height="1" fill="#000000" />
<rect x="28" y="10" width="1" height="1" fill="#000000" />
<rect x="30" y="10" width="1" height="5" fill="#5FCDE4" />
<rect x="3" y="11" width="1" height="3" fill="#5FCDE4" />
<rect x="7" y="11" width="1" height="7" fill="#5FCDE4" />
<rect x="10" y="11" width="1" height="1" fill="#3F3F74" />
<rect x="11" y="11" width="1" height="3" fill="#5FCDE4" />
<rect x="14" y="11" width="1" height="1" fill="#3F3F74" />
<rect x="16" y="11" width="1" height="1" fill="#3F3F74" />
<rect x="18" y="11" width="1" height="1" fill="#3F3F74" />
<rect x="19" y="11" width="1" height="1" fill="#000000" />
<rect x="20" y="11" width="1" height="1" fill="#3F3F74" />
<rect x="21" y="11" width="1" height="3" fill="#000000" />
<rect x="22" y="11" width="1" height="1" fill="#3F3F74" />
<rect x="24" y="11" width="1" height="1" fill="#3F3F74" />
<rect x="25" y="11" width="1" height="5" fill="#000000" />
<rect x="26" y="11" width="1" height="1" fill="#3F3F74" />
<rect x="28" y="11" width="1" height="1" fill="#3F3F74" />
<rect x="1" y="12" width="1" height="3" fill="#3F3F74" />
<rect x="4" y="12" width="1" height="2" fill="#5FCDE4" />
<rect x="5" y="12" width="1" height="6" fill="#3F3F74" />
<rect x="8" y="12" width="1" height="1" fill="#000000" />
<rect x="10" y="12" width="1" height="2" fill="#5FCDE4" />
<rect x="13" y="12" width="1" height="1" fill="#3F3F74" />
<rect x="14" y="12" width="1" height="1" fill="#000000" />
<rect x="16" y="12" width="1" height="1" fill="#000000" />
<rect x="18" y="12" width="1" height="1" fill="#000000" />
<rect x="19" y="12" width="1" height="1" fill="#3F3F74" />
<rect x="20" y="12" width="1" height="1" fill="#000000" />
<rect x="22" y="12" width="1" height="1" fill="#000000" />
<rect x="24" y="12" width="1" height="1" fill="#000000" />
<rect x="26" y="12" width="1" height="1" fill="#000000" />
<rect x="28" y="12" width="1" height="3" fill="#5FCDE4" />
<rect x="0" y="13" width="1" height="5" fill="#5FCDE4" />
<rect x="2" y="13" width="1" height="4" fill="#3F3F74" />
<rect x="6" y="13" width="1" height="3" fill="#5FCDE4" />
<rect x="8" y="13" width="1" height="3" fill="#5FCDE4" />
<rect x="12" y="13" width="1" height="1" fill="#3F3F74" />
<rect x="13" y="13" width="1" height="1" fill="#000000" />
<rect x="14" y="13" width="1" height="5" fill="#5FCDE4" />
<rect x="15" y="13" width="1" height="1" fill="#000000" />
<rect x="16" y="13" width="1" height="1" fill="#3F3F74" />
<rect x="17" y="13" width="1" height="1" fill="#000000" />
<rect x="18" y="13" width="1" height="1" fill="#3F3F74" />
<rect x="19" y="13" width="1" height="1" fill="#000000" />
<rect x="20" y="13" width="1" height="1" fill="#3F3F74" />
<rect x="22" y="13" width="1" height="1" fill="#3F3F74" />
<rect x="24" y="13" width="1" height="1" fill="#3F3F74" />
<rect x="26" y="13" width="1" height="1" fill="#3F3F74" />
<rect x="27" y="13" width="1" height="2" fill="#5FCDE4" />
<rect x="31" y="13" width="1" height="2" fill="#5FCDE4" />
<rect x="3" y="14" width="2" height="2" fill="#3F3F74" />
<rect x="10" y="14" width="1" height="1" fill="#000000" />
<rect x="11" y="14" width="1" height="3" fill="#3F3F74" />
<rect x="12" y="14" width="1" height="1" fill="#000000" />
<rect x="13" y="14" width="1" height="1" fill="#3F3F74" />
<rect x="15" y="14" width="1" height="1" fill="#3F3F74" />
<rect x="16" y="14" width="1" height="1" fill="#000000" />
<rect x="17" y="14" width="1" height="1" fill="#3F3F74" />
<rect x="18" y="14" width="1" height="1" fill="#000000" />
<rect x="19" y="14" width="1" height="1" fill="#3F3F74" />
<rect x="20" y="14" width="1" height="1" fill="#000000" />
<rect x="21" y="14" width="1" height="1" fill="#3F3F74" />
<rect x="22" y="14" width="1" height="1" fill="#000000" />
<rect x="24" y="14" width="1" height="1" fill="#000000" />
<rect x="26" y="14" width="1" height="1" fill="#5FCDE4" />
<rect x="1" y="15" width="1" height="5" fill="#5FCDE4" />
<rect x="10" y="15" width="1" height="1" fill="#3F3F74" />
<rect x="12" y="15" width="1" height="1" fill="#3F3F74" />
<rect x="13" y="15" width="1" height="5" fill="#5FCDE4" />
<rect x="15" y="15" width="1" height="1" fill="#000000" />
<rect x="16" y="15" width="1" height="1" fill="#3F3F74" />
<rect x="17" y="15" width="1" height="1" fill="#000000" />
<rect x="18" y="15" width="1" height="1" fill="#3F3F74" />
<rect x="19" y="15" width="1" height="1" fill="#000000" />
<rect x="20" y="15" width="1" height="1" fill="#3F3F74" />
<rect x="21" y="15" width="1" height="1" fill="#000000" />
<rect x="22" y="15" width="1" height="1" fill="#3F3F74" />
<rect x="24" y="15" width="1" height="1" fill="#3F3F74" />
<rect x="26" y="15" width="2" height="1" fill="#000000" />
<rect x="28" y="15" width="1" height="1" fill="#3F3F74" />
<rect x="29" y="15" width="3" height="1" fill="#000000" />
<rect x="3" y="16" width="1" height="2" fill="#3F3F74" />
<rect x="4" y="16" width="1" height="1" fill="#000000" />
<rect x="6" y="16" width="1" height="1" fill="#000000" />
<rect x="8" y="16" width="1" height="1" fill="#000000" />
<rect x="10" y="16" width="1" height="1" fill="#000000" />
<rect x="12" y="16" width="1" height="1" fill="#000000" />
<rect x="15" y="16" width="1" height="1" fill="#3F3F74" />
<rect x="16" y="16" width="1" height="1" fill="#000000" />
<rect x="17" y="16" width="5" height="1" fill="#9BADB7" />
<rect x="22" y="16" width="1" height="1" fill="#000000" />
<rect x="23" y="16" width="1" height="2" fill="#9BADB7" />
<rect x="24" y="16" width="1" height="2" fill="#000000" />
<rect x="25" y="16" width="4" height="2" fill="#9BADB7" />
<rect x="29" y="16" width="1" height="2" fill="#000000" />
<rect x="30" y="16" width="2" height="3" fill="#9BADB7" />
<rect x="2" y="17" width="1" height="4" fill="#5FCDE4" />
<rect x="4" y="17" width="1" height="1" fill="#3F3F74" />
<rect x="6" y="17" width="1" height="1" fill="#3F3F74" />
<rect x="8" y="17" width="1" height="1" fill="#3F3F74" />
<rect x="9" y="17" width="1" height="1" fill="#000000" />
<rect x="10" y="17" width="1" height="1" fill="#3F3F74" />
<rect x="11" y="17" width="1" height="1" fill="#000000" />
<rect x="12" y="17" width="1" height="4" fill="#5FCDE4" />
<rect x="15" y="17" width="1" height="1" fill="#000000" />
<rect x="16" y="17" width="1" height="1" fill="#3F3F74" />
<rect x="17" y="17" width="4" height="1" fill="#9BADB7" />
<rect x="21" y="17" width="1" height="1" fill="#000000" />
<rect x="22" y="17" width="1" height="3" fill="#9BADB7" />
<rect x="0" y="18" width="1" height="2" fill="#3F3F74" />
<rect x="3" y="18" width="3" height="4" fill="#5FCDE4" />
<rect x="6" y="18" width="1" height="1" fill="#000000" />
<rect x="7" y="18" width="1" height="1" fill="#3F3F74" />
<rect x="8" y="18" width="1" height="1" fill="#000000" />
<rect x="9" y="18" width="3" height="4" fill="#5FCDE4" />
<rect x="14" y="18" width="1" height="1" fill="#000000" />
<rect x="15" y="18" width="1" height="1" fill="#3F3F74" />
<rect x="16" y="18" width="4" height="1" fill="#9BADB7" />
<rect x="20" y="18" width="1" height="1" fill="#000000" />
<rect x="21" y="18" width="1" height="4" fill="#9BADB7" />
<rect x="23" y="18" width="1" height="2" fill="#000000" />
<rect x="24" y="18" width="4" height="2" fill="#9BADB7" />
<rect x="28" y="18" width="1" height="2" fill="#000000" />
<rect x="29" y="18" width="1" height="6" fill="#9BADB7" />
<rect x="6" y="19" width="3" height="4" fill="#5FCDE4" />
<rect x="14" y="19" width="1" height="1" fill="#3F3F74" />
<rect x="15" y="19" width="1" height="1" fill="#000000" />
<rect x="16" y="19" width="3" height="1" fill="#9BADB7" />
<rect x="19" y="19" width="1" height="1" fill="#000000" />
<rect x="20" y="19" width="1" height="5" fill="#9BADB7" />
<rect x="30" y="19" width="1" height="3" fill="#9BADB7" />
<rect x="31" y="19" width="1" height="13" fill="#000000" />
<rect x="0" y="20" width="1" height="1" fill="#000000" />
<rect x="1" y="20" width="1" height="5" fill="#3F3F74" />
<rect x="13" y="20" width="2" height="1" fill="#000000" />
<rect x="15" y="20" width="3" height="1" fill="#9BADB7" />
<rect x="18" y="20" width="1" height="1" fill="#000000" />
<rect x="19" y="20" width="1" height="6" fill="#9BADB7" />
<rect x="22" y="20" width="1" height="2" fill="#000000" />
<rect x="23" y="20" width="4" height="1" fill="#9BADB7" />
<rect x="27" y="20" width="1" height="1" fill="#000000" />
<rect x="28" y="20" width="1" height="5" fill="#9BADB7" />
<rect x="0" y="21" width="1" height="3" fill="#3F3F74" />
<rect x="2" y="21" width="1" height="1" fill="#3F3F74" />
<rect x="12" y="21" width="1" height="1" fill="#3F3F74" />
<rect x="13" y="21" width="1" height="1" fill="#000000" />
<rect x="14" y="21" width="3" height="1" fill="#9BADB7" />
<rect x="17" y="21" width="1" height="1" fill="#000000" />
<rect x="18" y="21" width="1" height="6" fill="#9BADB7" />
<rect x="23" y="21" width="3" height="1" fill="#9BADB7" />
<rect x="26" y="21" width="1" height="1" fill="#000000" />
<rect x="27" y="21" width="1" height="6" fill="#9BADB7" />
<rect x="2" y="22" width="1" height="1" fill="#000000" />
<rect x="3" y="22" width="1" height="2" fill="#3F3F74" />
<rect x="4" y="22" width="1" height="1" fill="#000000" />
<rect x="5" y="22" width="1" height="1" fill="#5FCDE4" />
<rect x="9" y="22" width="1" height="1" fill="#5FCDE4" />
<rect x="10" y="22" width="1" height="1" fill="#000000" />
<rect x="11" y="22" width="1" height="1" fill="#3F3F74" />
<rect x="12" y="22" width="1" height="1" fill="#000000" />
<rect x="13" y="22" width="3" height="1" fill="#9BADB7" />
<rect x="16" y="22" width="1" height="1" fill="#000000" />
<rect x="17" y="22" width="1" height="6" fill="#9BADB7" />
<rect x="21" y="22" width="1" height="2" fill="#000000" />
<rect x="22" y="22" width="3" height="1" fill="#9BADB7" />
<rect x="25" y="22" width="1" height="1" fill="#000000" />
<rect x="26" y="22" width="1" height="6" fill="#9BADB7" />
<rect x="30" y="22" width="1" height="10" fill="#000000" />
<rect x="2" y="23" width="1" height="1" fill="#9BADB7" />
<rect x="4" y="23" width="3" height="1" fill="#3F3F74" />
<rect x="7" y="23" width="1" height="1" fill="#5FCDE4" />
<rect x="8" y="23" width="1" height="1" fill="#3F3F74" />
<rect x="9" y="23" width="1" height="1" fill="#000000" />
<rect x="10" y="23" width="1" height="1" fill="#3F3F74" />
<rect x="11" y="23" width="4" height="1" fill="#9BADB7" />
<rect x="15" y="23" width="1" height="1" fill="#000000" />
<rect x="16" y="23" width="1" height="6" fill="#9BADB7" />
<rect x="22" y="23" width="2" height="1" fill="#9BADB7" />
<rect x="24" y="23" width="1" height="1" fill="#000000" />
<rect x="25" y="23" width="1" height="5" fill="#9BADB7" />
<rect x="0" y="24" width="1" height="1" fill="#000000" />
<rect x="2" y="24" width="1" height="1" fill="#000000" />
<rect x="3" y="24" width="3" height="1" fill="#9BADB7" />
<rect x="6" y="24" width="1" height="1" fill="#000000" />
<rect x="7" y="24" width="1" height="1" fill="#3F3F74" />
<rect x="8" y="24" width="1" height="1" fill="#000000" />
<rect x="9" y="24" width="5" height="1" fill="#9BADB7" />
<rect x="14" y="24" width="1" height="1" fill="#000000" />
<rect x="15" y="24" width="1" height="6" fill="#9BADB7" />
<rect x="20" y="24" width="1" height="2" fill="#000000" />
<rect x="21" y="24" width="2" height="1" fill="#9BADB7" />
<rect x="23" y="24" width="1" height="1" fill="#000000" />
<rect x="24" y="24" width="1" height="5" fill="#9BADB7" />
<rect x="29" y="24" width="1" height="8" fill="#000000" />
<rect x="0" y="25" width="1" height="1" fill="#3F3F74" />
<rect x="1" y="25" width="1" height="1" fill="#000000" />
<rect x="2" y="25" width="1" height="1" fill="#3F3F74" />
<rect x="3" y="25" width="1" height="1" fill="#000000" />
<rect x="4" y="25" width="8" height="1" fill="#9BADB7" />
<rect x="12" y="25" width="1" height="1" fill="#3F3F74" />
<rect x="13" y="25" width="1" height="1" fill="#000000" />
<rect x="14" y="25" width="1" height="5" fill="#9BADB7" />
<rect x="21" y="25" width="2" height="1" fill="#000000" />
<rect x="23" y="25" width="1" height="5" fill="#9BADB7" />
<rect x="28" y="25" width="1" height="7" fill="#000000" />
<rect x="0" y="26" width="1" height="1" fill="#000000" />
<rect x="1" y="26" width="1" height="3" fill="#3F3F74" />
<rect x="2" y="26" width="1" height="1" fill="#000000" />
<rect x="3" y="26" width="1" height="1" fill="#3F3F74" />
<rect x="4" y="26" width="6" height="1" fill="#9BADB7" />
<rect x="10" y="26" width="2" height="1" fill="#000000" />
<rect x="12" y="26" width="2" height="5" fill="#9BADB7" />
<rect x="19" y="26" width="1" height="1" fill="#000000" />
<rect x="20" y="26" width="1" height="2" fill="#9BADB7" />
<rect x="21" y="26" width="1" height="2" fill="#000000" />
<rect x="22" y="26" width="1" height="4" fill="#9BADB7" />
<rect x="0" y="27" width="1" height="1" fill="#3F3F74" />
<rect x="2" y="27" width="1" height="1" fill="#3F3F74" />
<rect x="3" y="27" width="1" height="1" fill="#000000" />
<rect x="4" y="27" width="1" height="1" fill="#3F3F74" />
<rect x="5" y="27" width="3" height="1" fill="#9BADB7" />
<rect x="8" y="27" width="1" height="1" fill="#3F3F74" />
<rect x="9" y="27" width="1" height="1" fill="#000000" />
<rect x="10" y="27" width="2" height="4" fill="#9BADB7" />
<rect x="18" y="27" width="1" height="1" fill="#000000" />
<rect x="19" y="27" width="1" height="4" fill="#9BADB7" />
<rect x="27" y="27" width="1" height="5" fill="#000000" />
<rect x="0" y="28" width="1" height="1" fill="#000000" />
<rect x="2" y="28" width="1" height="1" fill="#000000" />
<rect x="3" y="28" width="1" height="1" fill="#3F3F74" />
<rect x="4" y="28" width="3" height="1" fill="#000000" />
<rect x="7" y="28" width="1" height="1" fill="#3F3F74" />
<rect x="8" y="28" width="2" height="2" fill="#9BADB7" />
<rect x="17" y="28" width="1" height="1" fill="#000000" />
<rect x="18" y="28" width="1" height="4" fill="#9BADB7" />
<rect x="20" y="28" width="1" height="4" fill="#000000" />
<rect x="21" y="28" width="1" height="3" fill="#9BADB7" />
<rect x="25" y="28" width="2" height="4" fill="#000000" />
<rect x="0" y="29" width="1" height="1" fill="#3F3F74" />
<rect x="1" y="29" width="1" height="1" fill="#000000" />
<rect x="2" y="29" width="1" height="1" fill="#3F3F74" />
<rect x="3" y="29" width="1" height="1" fill="#000000" />
<rect x="4" y="29" width="1" height="1" fill="#3F3F74" />
<rect x="5" y="29" width="1" height="1" fill="#000000" />
<rect x="6" y="29" width="1" height="1" fill="#3F3F74" />
<rect x="7" y="29" width="1" height="3" fill="#000000" />
<rect x="16" y="29" width="1" height="1" fill="#000000" />
<rect x="17" y="29" width="1" height="3" fill="#9BADB7" />
<rect x="24" y="29" width="1" height="3" fill="#000000" />
<rect x="0" y="30" width="1" height="1" fill="#000000" />
<rect x="1" y="30" width="1" height="1" fill="#3F3F74" />
<rect x="2" y="30" width="1" height="1" fill="#000000" />
<rect x="3" y="30" width="1" height="1" fill="#3F3F74" />
<rect x="4" y="30" width="1" height="1" fill="#000000" />
<rect x="5" y="30" width="1" height="1" fill="#3F3F74" />
<rect x="6" y="30" width="1" height="1" fill="#000000" />
<rect x="8" y="30" width="2" height="1" fill="#000000" />
<rect x="14" y="30" width="2" height="1" fill="#000000" />
<rect x="16" y="30" width="1" height="2" fill="#9BADB7" />
<rect x="22" y="30" width="2" height="2" fill="#000000" />
<rect x="0" y="31" width="1" height="1" fill="#3F3F74" />
<rect x="1" y="31" width="1" height="1" fill="#000000" />
<rect x="2" y="31" width="1" height="1" fill="#3F3F74" />
<rect x="3" y="31" width="1" height="1" fill="#000000" />
<rect x="4" y="31" width="1" height="1" fill="#3F3F74" />
<rect x="5" y="31" width="1" height="1" fill="#000000" />
<rect x="6" y="31" width="1" height="1" fill="#3F3F74" />
<rect x="8" y="31" width="1" height="1" fill="#3F3F74" />
<rect x="9" y="31" width="1" height="1" fill="#000000" />
<rect x="10" y="31" width="1" height="1" fill="#3F3F74" />
<rect x="11" y="31" width="1" height="1" fill="#000000" />
<rect x="12" y="31" width="1" height="1" fill="#3F3F74" />
<rect x="13" y="31" width="1" height="1" fill="#000000" />
<rect x="14" y="31" width="2" height="1" fill="#9BADB7" />
<rect x="19" y="31" width="1" height="1" fill="#000000" />
<rect x="21" y="31" width="1" height="1" fill="#000000" />
</svg>